<?xml version="1.0" ?><svg id="레이어_1" style="enable-background:new 0 0 100 100;" version="1.1" viewBox="0 0 100 100" xml:space="preserve" xmlns="http://www.w3.org/2000/svg" xmlns:xlink="http://www.w3.org/1999/xlink"><g id="레이어_7"><path d="M50,82c-12.4,0-22.5-10.1-22.5-22.6c0-9,11.4-28.4,18.2-39c1.5-2.4,4.7-3.1,7.1-1.6c0.6,0.4,1.2,1,1.6,1.6   c6.8,10.7,18.2,30,18.2,39C72.4,71.9,62.4,82,50,82z M50,22.1c-0.3,0-0.7,0.2-0.8,0.5c-11,17.3-17.5,31.1-17.5,36.8   c0,10.1,8.2,18.4,18.3,18.4s18.4-8.2,18.4-18.4l0,0c0-5.8-6.5-19.5-17.5-36.8C50.7,22.3,50.2,22.1,50,22.1z"/></g></svg>